name C:\Users\u0101727\Documents\MyRepositories\upper-imu-dc\Results\main_tracking\Case_41\FLX01_linearAccelerations_bodyFrame.mot
datacolumns 4
datarows 105
range 5.01000000 6.05000000
endheader 
time	radius_imu_x	radius_imu_y	radius_imu_z	
          5.01000000	          0.64883254	          3.60669534	         11.92155257	
          5.02000000	          0.65064956	          3.71749942	         11.98696093	
          5.03000000	          0.68805937	          3.82242605	         12.10008787	
          5.04000000	          0.65497489	          3.94039521	         12.06553600	
          5.05000000	          0.81137344	          4.06472985	         11.92920509	
          5.06000000	          0.90389631	          4.14621012	         11.91633640	
          5.07000000	          1.37689355	          4.29602342	         11.83478397	
          5.08000000	          0.98721250	          4.42110281	         11.64574774	
          5.09000000	          0.90124573	          4.55652636	         11.31964704	
          5.10000000	          0.86874162	          4.69091492	         10.60202099	
          5.11000000	          1.20396528	          4.80929130	          9.42195501	
          5.12000000	          1.66645248	          4.75526800	          8.95685704	
          5.13000000	          1.91905123	          5.07281433	          8.70455994	
          5.14000000	          1.78889558	          5.33463824	          8.76440578	
          5.15000000	          1.73187491	          5.59101102	          8.76989665	
          5.16000000	          1.63488170	          5.84495135	          8.75600626	
          5.17000000	          1.53737114	          6.09362652	          8.70486336	
          5.18000000	          1.40730281	          6.33697171	          8.61635664	
          5.19000000	          1.25875042	          6.57357540	          8.49881026	
          5.20000000	          1.09568703	          6.80283625	          8.36559454	
          5.21000000	          0.91822992	          7.02445443	          8.22838973	
          5.22000000	          0.72730902	          7.23801353	          8.09641047	
          5.23000000	          0.52637853	          7.44297223	          7.97553484	
          5.24000000	          0.32043438	          7.63872066	          7.86777643	
          5.25000000	          0.11457357	          7.82472545	          7.77208088	
          5.26000000	         -0.08748882	          8.00063764	          7.68557490	
          5.27000000	         -0.28299743	          8.16622819	          7.60402942	
          5.28000000	         -0.46946314	          8.32126378	          7.52073652	
          5.29000000	         -0.64387113	          8.46564367	          7.42848559	
          5.30000000	         -0.80473170	          8.59960367	          7.32059900	
          5.31000000	         -0.95122971	          8.72371464	          7.19292523	
          5.32000000	         -1.08358330	          8.83879581	          7.04401296	
          5.33000000	         -1.20336055	          8.94575151	          6.87478255	
          5.34000000	         -1.31300800	          9.04538222	          6.68845145	
          5.35000000	         -1.41537331	          9.13825769	          6.49033283	
          5.36000000	         -1.51354193	          9.22467413	          6.28708557	
          5.37000000	         -1.61040359	          9.30465496	          6.08531679	
          5.38000000	         -1.70782969	          9.37799289	          5.89003404	
          5.39000000	         -1.80608598	          9.44436474	          5.70382557	
          5.40000000	         -1.90387795	          9.50349406	          5.52704329	
          5.41000000	         -1.99890752	          9.55530192	          5.35850211	
          5.42000000	         -2.08844996	          9.59999946	          5.19634313	
          5.43000000	         -2.16994440	          9.63812277	          5.03868963	
          5.44000000	         -2.24131555	          9.67050242	          4.88438072	
          5.45000000	         -2.30101868	          9.69812173	          4.73222562	
          5.46000000	         -2.34830401	          9.72204182	          4.58186775	
          5.47000000	         -2.38314535	          9.74324891	          4.43271812	
          5.48000000	         -2.40638427	          9.76263788	          4.28430035	
          5.49000000	         -2.41935869	          9.78100300	          4.13646722	
          5.50000000	         -2.42398048	          9.79910308	          3.98918245	
          5.51000000	         -2.42158700	          9.81761124	          3.84279774	
          5.52000000	         -2.41306842	          9.83719463	          3.69771128	
          5.53000000	         -2.39719645	          9.85824841	          3.55228215	
          5.54000000	         -2.37551027	          9.88158715	          3.40900530	
          5.55000000	         -2.35029785	          9.90792821	          3.27748233	
          5.56000000	         -2.32024313	          9.93719860	          3.15022241	
          5.57000000	         -2.28466975	          9.96914328	          3.03693116	
          5.58000000	         -2.24848051	         10.00395646	          2.92700319	
          5.59000000	         -2.20652910	         10.04007360	          2.82615616	
          5.60000000	         -2.16643391	         10.07776985	          2.72793102	
          5.61000000	         -2.12760276	         10.11570587	          2.63636290	
          5.62000000	         -2.09088840	         10.15320635	          2.55235462	
          5.63000000	         -2.05960845	         10.18976461	          2.47599115	
          5.64000000	         -2.03470308	         10.22473095	          2.40824063	
          5.65000000	         -2.01730023	         10.25773561	          2.34916153	
          5.66000000	         -2.00790660	         10.28844009	          2.29753308	
          5.67000000	         -2.00559970	         10.31652849	          2.25085684	
          5.68000000	         -2.00848165	         10.34179667	          2.20498077	
          5.69000000	         -2.01432551	         10.36424065	          2.15582216	
          5.70000000	         -2.02007849	         10.38393369	          2.09925394	
          5.71000000	         -2.02301230	         10.40109695	          2.03288235	
          5.72000000	         -2.02163889	         10.41609125	          1.95707447	
          5.73000000	         -2.01524906	         10.42926235	          1.87360399	
          5.74000000	         -2.00439790	         10.44093191	          1.78591742	
          5.75000000	         -1.99077977	         10.45129594	          1.69796712	
          5.76000000	         -1.97677297	         10.46030441	          1.61302289	
          5.77000000	         -1.96504626	         10.46762999	          1.53307781	
          5.78000000	         -1.95794937	         10.47269854	          1.45831381	
          5.79000000	         -1.95762928	         10.47482029	          1.38823474	
          5.80000000	         -1.96544070	         10.47330034	          1.32175545	
          5.81000000	         -1.98160983	         10.46755853	          1.25785536	
          5.82000000	         -2.00513564	         10.45727999	          1.19577620	
          5.83000000	         -2.03392835	         10.44251284	          1.13498943	
          5.84000000	         -2.06504657	         10.42369284	          1.07516621	
          5.85000000	         -2.09499005	         10.40161385	          1.01643084	
          5.86000000	         -2.11977668	         10.37735015	          0.96018182	
          5.87000000	         -2.13499067	         10.35217472	          0.90967284	
          5.88000000	         -2.13638807	         10.32748818	          0.86902924	
          5.89000000	         -2.12084328	         10.30464026	          0.84173992	
          5.90000000	         -2.08718416	         10.28493238	          0.83108466	
          5.91000000	         -2.03006579	         10.26882860	          0.83168706	
          5.92000000	         -1.95548721	         10.25767397	          0.85612248	
          5.93000000	         -1.85713457	         10.25124224	          0.89377834	
          5.94000000	         -1.73820934	         10.24979224	          0.94541979	
          5.95000000	         -1.60373174	         10.25347635	          1.01099570	
          5.96000000	         -1.44937916	         10.26122265	          1.07306915	
          5.97000000	         -1.28014759	         10.27235507	          1.12280527	
          5.98000000	         -1.10412448	         10.28613764	          1.15223212	
          5.99000000	         -0.92523273	         10.30169757	          1.15551031	
          6.00000000	         -0.73958712	         10.31792468	          1.12525150	
          6.01000000	         -0.55127447	         10.33406253	          1.05831769	
          6.02000000	         -0.36560690	         10.35001320	          0.96439014	
          6.03000000	         -0.18718362	         10.36530047	          0.84675411	
          6.04000000	         -0.01762844	         10.37941769	          0.71053036	
          6.05000000	          0.14317383	         10.39203503	          0.56313373	
